<svg xmlns="http://www.w3.org/2000/svg" version="1.1" xmlns:xlink="http://www.w3.org/1999/xlink" xmlns:svgjs="http://svgjs.dev/svgjs" width="2000" height="1548" viewBox="0 0 2000 1548"><g transform="matrix(1,0,0,1,-0.03648919738520817,0.627877962529169)"><svg viewBox="0 0 319 247" data-background-color="#ebe6c8" preserveAspectRatio="xMidYMid meet" height="1548" width="2000" xmlns="http://www.w3.org/2000/svg" xmlns:xlink="http://www.w3.org/1999/xlink"><g id="tight-bounds" transform="matrix(1,0,0,1,0.005963316241661687,-0.09997365579206985)"><svg viewBox="0 0 318.9882166567754 247.2" height="247.2" width="318.9882166567754"><g><svg viewBox="0 0 318.9882166567754 247.2" height="247.2" width="318.9882166567754"><g><svg viewBox="0 0 318.9882166567754 247.2" height="247.2" width="318.9882166567754"><g id="textblocktransform"><svg viewBox="0 0 318.9882166567754 247.2" height="247.2" width="318.9882166567754" id="textblock"><g><svg viewBox="0 0 318.9882166567754 247.2" height="247.2" width="318.9882166567754"><path d="M318.241 53.02C316.742 27.36 312.468 20.227 312.468 20.227 299.346-6.202 282.97-0.506 268.259 3.292 242.285 3.446 216.416 9.091 190.503 12.119 136.111 12.581 81.255 4.986 27.133 23.717 22.049 29.464-5.274 24.846 0.904 56.304 2.524 69.39 8.432 83.913 8.252 95.922 9.062 98.026 10.187 93.202 10.667 96.23 12.346 104.39 15.091 100.541 17.34 105.365 14.206 118.246 16.455 128.971 18.6 140.21 14.821 143.135 9.977 141.749 7.803 151.449 7.578 158.479 6.363 157.145 5.028 156.837 4.053 156.632 2.089 157.402 2.419 159.608 3.544 167.152-1.285 171.514 1.744 178.904-0.34 186.91 3.184 193.838 2.704 202.511 2.644 204.255 2.974 205.744 3.499 206.154 5.823 208.361 2.434 212.672 2.794 217.342 26.638 249.262 52.507 227.195 76.936 241.872 83.279 231.608 78.51 245.516 81.045 243.36 83.024 240.846 84.464 251.263 86.698 245.362 87.043 243.668 86.518 239.665 87.748 240.435 88.393 240.846 88.963 240.743 89.053 238.382 89.188 234.841 88.003 237.048 87.688 235.201 91.092 225.861 90.252 248.081 93.447 247.158 93.297 244.438 92.367 240.538 94.271 241.051 96.161 237.151 96.221 233.918 97.9 242.693 97.96 244.592 98.26 245.926 98.74 246.85 103.989 237.305 109.208 250.237 114.711 245.926 118.086 241.205 121.325 248.492 124.744 246.696 125.944 245.259 127.158 242.693 128.313 247.004 142.455 247.928 157.526 244.079 170.933 247.158 206.759 241.41 245.044 249.518 282.82 241.923 291.728 238.998 300.981 234.841 309.664 231.506 309.664 231.506 316.697 222.371 316.697 181.316S318.196 145.393 318.421 112.703C318.646 80.013 319.696 78.679 318.196 53.02Z" opacity="1" fill="#f96420" data-fill-palette-color="tertiary"></path><g transform="matrix(1,0,0,1,55.76831999999999,26.230666666666668)"><svg width="207.45157665677544" viewBox="3.5 -33.7 35.9 33.7" height="194.73866666666666" data-palette-color="#ebe6c8"><path d="M7.55 0L3.5 0 5.95-33.7 11.1-33.7 15.55-21.4 20.95-5.7Q23.85-13.9 26.65-21.4L26.65-21.4 31.3-33.7 36.45-33.7 39.4 0 35.35 0 34.2-13.3 33-28.25Q30.35-20.85 27.55-13.3L27.55-13.3 22.85-0.75 19-0.75 14.55-13.3 9.45-27.95Q9.45-26 8.5-13.3L8.5-13.3 7.55 0Z" opacity="1" transform="matrix(1,0,0,1,0,0)" fill="#ebe6c8" class="wordmark-text-0" data-fill-palette-color="quaternary" id="text-0"></path></svg></g></svg></g></svg></g></svg></g><g></g></svg></g><defs></defs></svg><rect width="318.9882166567754" height="247.2" fill="none" stroke="none" visibility="hidden"></rect></g></svg></g></svg>