<svg xmlns="http://www.w3.org/2000/svg" version="1.1" xmlns:xlink="http://www.w3.org/1999/xlink" xmlns:svgjs="http://svgjs.dev/svgjs" width="2000" height="505" viewBox="0 0 2000 505"><g transform="matrix(1,0,0,1,-1.2112696095522324,1.25367567133776)"><svg viewBox="0 0 396 100" data-background-color="#ebe6c8" preserveAspectRatio="xMidYMid meet" height="505" width="2000" xmlns="http://www.w3.org/2000/svg" xmlns:xlink="http://www.w3.org/1999/xlink"><g id="tight-bounds" transform="matrix(1,0,0,1,0.24008861730862918,-0.24806436795418563)"><svg viewBox="0 0 395.52 100.49631697613987" height="100.49631697613987" width="395.52"><g><svg viewBox="0 0 395.52 100.49631697613987" height="100.49631697613987" width="395.52"><g><svg viewBox="0 0 395.52 100.49631697613987" height="100.49631697613987" width="395.52"><g id="textblocktransform"><svg viewBox="0 0 395.52 100.49631697613987" height="100.49631697613987" width="395.52" id="textblock"><g><svg viewBox="0 0 395.52 100.49631697613987" height="100.49631697613987" width="395.52"><path d="M394.594 21.555C392.735 11.123 387.435 8.223 387.435 8.223 371.165-2.521 350.86-0.206 332.619 1.338 300.414 1.401 268.339 3.696 236.208 4.927 168.767 5.115 100.749 2.027 33.643 9.642 27.339 11.978-6.54 10.101 1.121 22.89 3.129 28.21 10.456 34.114 10.232 38.996 11.236 39.851 12.631 37.89 13.226 39.121 15.309 42.438 18.711 40.874 21.501 42.835 17.614 48.071 20.403 52.432 23.062 57.001 18.377 58.19 12.371 57.627 9.675 61.57 9.396 64.428 7.89 63.885 6.235 63.76 5.026 63.677 2.59 63.99 2.999 64.887 4.394 67.954-1.594 69.727 2.162 72.731-0.422 75.986 3.948 78.803 3.353 82.328 3.278 83.038 3.687 83.643 4.338 83.81 7.22 84.707 3.018 86.459 3.464 88.358 33.029 101.335 65.104 92.363 95.394 98.33 103.259 94.158 97.346 99.812 100.489 98.935 102.943 97.913 104.728 102.148 107.499 99.749 107.927 99.06 107.276 97.433 108.8 97.746 109.6 97.913 110.307 97.871 110.418 96.912 110.586 95.472 109.117 96.369 108.726 95.618 112.947 91.821 111.906 100.855 115.866 100.479 115.68 99.373 114.528 97.788 116.889 97.996 119.232 96.411 119.306 95.096 121.389 98.664 121.463 99.436 121.835 99.978 122.43 100.354 128.938 96.473 135.409 101.731 142.233 99.978 146.417 98.059 150.433 101.022 154.672 100.291 156.16 99.707 157.666 98.664 159.098 100.417 176.632 100.792 195.319 99.227 211.943 100.479 256.364 98.142 303.836 101.439 350.674 98.351 361.719 97.162 373.192 95.472 383.958 94.116 383.958 94.116 392.679 90.402 392.679 73.712S394.538 59.108 394.817 45.818C395.096 32.528 396.398 31.986 394.538 21.555Z" opacity="1" fill="#f96420" data-fill-palette-color="tertiary"></path><g transform="matrix(1,0,0,1,55.76832,26.230666666666668)"><svg width="283.98335999999995" viewBox="3.5 -35.35 211.64 35.800000000000004" height="48.03498364280652" data-palette-color="#ebe6c8"><path d="M7.55 0L3.5 0 5.95-33.7 11.1-33.7 15.55-21.4 20.95-5.7Q23.85-13.9 26.65-21.4L26.65-21.4 31.3-33.7 36.45-33.7 39.4 0 35.35 0 34.2-13.3 33-28.25Q30.35-20.85 27.55-13.3L27.55-13.3 22.85-0.75 19-0.75 14.55-13.3 9.45-27.95Q9.45-26 8.5-13.3L8.5-13.3 7.55 0ZM60.15-8.45L60.15-11.7 55.75-11.7Q52.55-11.7 50.95-10.45 49.35-9.2 49.35-7.3 49.35-5.4 50.6-4.23 51.85-3.05 54.25-3.05L54.25-3.05Q56.95-3.05 58.55-4.58 60.15-6.1 60.15-8.45L60.15-8.45ZM47.05-20.05L47.05-20.05 47.05-24Q49.9-25.75 54.55-25.75L54.55-25.75Q64.1-25.75 64.1-16.05L64.1-16.05 64.1 0 60.2 0 60.2-3Q58.25 0.25 53.1 0.25L53.1 0.25Q49.55 0.25 47.37-1.85 45.2-3.95 45.2-7.15L45.2-7.15Q45.2-10.8 47.97-12.83 50.75-14.85 55.55-14.85L55.55-14.85 60.15-14.85 60.15-16.15Q60.15-19.15 58.8-20.68 57.45-22.2 54.25-22.2L54.25-22.2Q50.2-22.2 47.05-20.05ZM71.1-35.35L75-35.35 75-20.95Q77.25-25.7 83-25.7L83-25.7Q86.65-25.7 88.87-23.45 91.1-21.2 91.1-17.35L91.1-17.35 91.1 0 87.15 0 87.15-16.4Q87.15-19.15 85.72-20.65 84.3-22.15 82-22.15L82-22.15Q79.2-22.15 77.1-20 75-17.85 75-13.85L75-13.85 75 0 71.1 0 71.1-35.35ZM98.09-25.35L101.99-25.35 101.99-21.25Q104.09-25.7 109.14-25.7L109.14-25.7Q114.99-25.7 116.54-20.75L116.54-20.75Q117.64-23.15 119.62-24.43 121.59-25.7 124.04-25.7L124.04-25.7Q127.99-25.7 129.99-23.45 131.99-21.2 131.99-17.4L131.99-17.4 131.99 0 128.04 0 128.04-16.4Q128.04-22.15 123.19-22.15L123.19-22.15Q120.79-22.15 118.89-19.98 116.99-17.8 116.99-13.85L116.99-13.85 116.99 0 113.04 0 113.04-16.4Q113.04-22.15 108.19-22.15L108.19-22.15Q105.79-22.15 103.89-19.98 101.99-17.8 101.99-13.85L101.99-13.85 101.99 0 98.09 0 98.09-25.35ZM149.29 0.45L149.29 0.45Q143.84 0.45 140.67-3.23 137.49-6.9 137.49-12.5L137.49-12.5Q137.49-18.15 140.77-21.93 144.04-25.7 149.29-25.7L149.29-25.7Q155.04-25.7 158.17-22 161.29-18.3 161.29-12.6L161.29-12.6Q161.29-6.95 158.09-3.25 154.89 0.45 149.29 0.45ZM149.29-22.2L149.29-22.2Q145.69-22.2 143.64-19.4 141.59-16.6 141.59-12.55L141.59-12.55Q141.59-8.6 143.69-5.83 145.79-3.05 149.29-3.05L149.29-3.05Q153.09-3.05 155.14-5.78 157.19-8.5 157.19-12.55L157.19-12.55Q157.19-16.75 155.24-19.48 153.29-22.2 149.29-22.2ZM182.84-11.4L182.84-25.35 186.79-25.35 186.79 0 182.84 0 182.84-4.4Q180.84 0.3 174.89 0.3L174.89 0.3Q171.14 0.3 168.96-1.93 166.79-4.15 166.79-7.9L166.79-7.9 166.79-25.35 170.74-25.35 170.74-8.9Q170.74-6.15 172.14-4.7 173.54-3.25 175.94-3.25L175.94-3.25Q179.09-3.25 180.96-5.45 182.84-7.65 182.84-11.4L182.84-11.4ZM203.74-3.2L203.74-3.2Q206.84-3.2 209.01-5.5 211.19-7.8 211.19-12.85L211.19-12.85Q211.19-17.65 208.94-19.9 206.69-22.15 203.99-22.15L203.99-22.15Q200.84-22.15 198.76-19.63 196.69-17.1 196.69-12.4L196.69-12.4Q196.69-8.3 198.69-5.75 200.69-3.2 203.74-3.2ZM211.19-21.5L211.19-35.35 215.14-35.35 215.14 0 211.19 0 211.19-3.75Q208.49 0.4 203.39 0.4L203.39 0.4Q198.34 0.4 195.46-3.35 192.59-7.1 192.59-12.45L192.59-12.45Q192.59-18.4 195.64-22.08 198.69-25.75 203.49-25.75L203.49-25.75Q208.44-25.75 211.19-21.5L211.19-21.5Z" opacity="1" transform="matrix(1,0,0,1,0,0)" fill="#ebe6c8" class="wordmark-text-0" data-fill-palette-color="quaternary" id="text-0"></path></svg></g></svg></g></svg></g></svg></g><g></g></svg></g><defs></defs></svg><rect width="395.52" height="100.49631697613987" fill="none" stroke="none" visibility="hidden"></rect></g></svg></g></svg>